<svg id="visual" viewBox="0 0 900 600" width="900" height="600" xmlns="http://www.w3.org/2000/svg" xmlns:xlink="http://www.w3.org/1999/xlink" version="1.1"><rect x="0" y="0" width="900" height="600" fill="#9f9f9f"></rect><defs><linearGradient id="grad1_0" x1="33.3%" y1="0%" x2="100%" y2="100%"><stop offset="20%" stop-color="#9f9f9f" stop-opacity="1"></stop><stop offset="80%" stop-color="#9f9f9f" stop-opacity="1"></stop></linearGradient></defs><defs><linearGradient id="grad2_0" x1="0%" y1="0%" x2="66.7%" y2="100%"><stop offset="20%" stop-color="#9f9f9f" stop-opacity="1"></stop><stop offset="80%" stop-color="#9f9f9f" stop-opacity="1"></stop></linearGradient></defs><g transform="translate(900, 0)"><path d="M0 486.7C-78.9 464 -157.8 441.3 -233 403.6C-308.2 365.8 -379.9 313.1 -421.5 243.4C-463.2 173.6 -475 86.8 -486.7 0L0 0Z" fill="#ffffff"></path></g><g transform="translate(0, 600)"><path d="M0 -486.7C78.3 -463.1 156.7 -439.4 232 -401.8C307.3 -364.2 379.6 -312.7 421.5 -243.4C463.5 -174.1 475.1 -87 486.7 0L0 0Z" fill="#ffffff"></path></g></svg>